<?xml version="1.0" standalone="no"?>
<!DOCTYPE svg PUBLIC "-//W3C//DTD SVG 20010904//EN"
 "http://www.w3.org/TR/2001/REC-SVG-20010904/DTD/svg10.dtd">
<svg version="1.0" xmlns="http://www.w3.org/2000/svg"
 width="500.000000pt" height="500.000000pt" viewBox="0 0 500.000000 500.000000"
 preserveAspectRatio="xMidYMid meet">
<metadata>
Created by potrace 1.11, written by Peter Selinger 2001-2013
</metadata>
<g transform="translate(0.000000,500.000000) scale(0.100000,-0.100000)"
fill="#000000" stroke="none">
<path d="M0 2500 l0 -2500 2500 0 2500 0 0 2500 0 2500 -2500 0 -2500 0 0
-2500z m2759 1469 c258 -36 490 -164 629 -349 152 -201 226 -442 239 -775 27
-737 -264 -1168 -854 -1263 -62 -10 -103 -21 -103 -28 0 -6 28 -17 62 -24 192
-37 280 -117 362 -327 61 -155 84 -194 126 -215 110 -56 196 24 216 198 l7 56
35 -6 c19 -3 37 -7 39 -10 9 -8 -17 -135 -38 -192 -25 -67 -108 -160 -176
-196 -89 -49 -156 -63 -298 -62 -171 0 -266 30 -357 112 -88 80 -138 166 -205
357 -62 177 -83 205 -153 205 -54 0 -116 -30 -193 -91 -27 -21 -53 -39 -57
-39 -4 0 -15 12 -25 26 -17 26 -17 26 21 58 54 46 161 103 216 117 68 16 62
35 -14 44 -136 16 -324 84 -437 159 -204 136 -338 352 -403 649 -20 90 -22
131 -23 352 0 221 3 262 23 357 81 386 263 639 567 789 212 105 490 139 794
98z"/>
<path d="M2347 3896 c-65 -19 -112 -57 -158 -128 -83 -129 -105 -239 -120
-593 -12 -277 -6 -882 11 -1040 14 -123 44 -253 77 -322 32 -70 101 -139 171
-171 51 -24 69 -27 172 -27 138 0 191 17 261 82 80 75 122 201 151 461 18 161
18 1112 0 1267 -24 207 -60 311 -136 394 -64 69 -108 84 -256 88 -84 1 -141
-2 -173 -11z"/>
</g>
</svg>
